<?xml version="1.0" encoding="utf-8"?>
<svg id="master-artboard" viewBox="0 0 1400 980" version="1.1" xmlns="http://www.w3.org/2000/svg" x="0px" y="0px" style="enable-background:new 0 0 336 235.2;" width="150px" height="130px"><defs><style id="ee-google-fonts">@import url(https://fonts.googleapis.com/css?family=Asap:400,400italic,700,700italic);</style></defs><g transform="matrix(7.538461538461538, 0, 0, 7.538461538461538, 134.61539785004868, -0.000004411554982652888)"><g>
	<path fill="#2F52A2" d="M131.158,81.768H30.498c-1.235,0-2.236-1.002-2.236-2.236c0-1.235,1.001-2.237,2.236-2.237h100.66&#10;&#9;&#9;c1.234,0,2.236,1.002,2.236,2.237C133.395,80.766,132.393,81.768,131.158,81.768"/>
	<path fill="#2F52A2" d="M131.158,90.248H30.498c-1.235,0-2.236-1-2.236-2.236c0-1.234,1.001-2.236,2.236-2.236h100.66&#10;&#9;&#9;c1.234,0,2.236,1.002,2.236,2.236C133.395,89.248,132.393,90.248,131.158,90.248"/>
	<path d="M 114.68399810791016 87.73200225830078 L 114.68399810791016 102.69300079345703 L 121.08799743652344 98.98200225830078 L 127.49600219726562 102.69499969482422 L 127.49600219726562 87.73200225830078 Z" fill="#2F52A2"/>
	<path d="M 118.806999 40.464001 H 135.640999 V 49.797001 H 118.806999 V 40.464001 Z" fill="#272B30"/>
	<path fill="#F1F1F1" d="M144.688,52.169c-0.084-0.072-0.168-0.14-0.252-0.212c-1.922-1.671-3.565-3.655-4.84-5.874&#10;&#9;&#9;c-0.012-0.022-0.022-0.045-0.033-0.067h-0.006c-1.408-2.487-2.365-5.265-2.75-8.221c-0.019-0.179-0.039-0.358-0.058-0.537&#10;&#9;&#9;c0-0.011-0.004-0.022-0.004-0.033c-0.162-1.04-0.608-1.99-1.248-2.772c-0.062-0.068-0.123-0.14-0.183-0.207&#10;&#9;&#9;c-5.282-5.93-12.308-10.278-20.271-12.229c-0.018-0.38-0.027-0.765-0.027-1.151c0-4.415,1.135-8.562,3.125-12.172&#10;&#9;&#9;c0.11-0.202,0.172-0.436,0.172-0.688c0-0.799-0.643-1.442-1.44-1.442c-0.034,0-0.067,0-0.101,0.006&#10;&#9;&#9;c-0.084,0.005-0.168,0.022-0.246,0.039C106.482,8.28,97.4,12.796,90.141,19.301c-3.06,2.739-5.797,5.83-8.145,9.211&#10;&#9;&#9;c-0.988,1.419-1.905,2.884-2.749,4.398c-0.504-0.274-1.019-0.536-1.538-0.788c-1.632-0.804-3.314-1.514-5.046-2.135&#10;&#9;&#9;c-5.193-1.861-10.787-2.873-16.622-2.873c-1.531,0-3.051,0.073-4.549,0.213c-5.634,0.509-10.999,1.973-15.923,4.225&#10;&#9;&#9;C19.653,38.823,8.28,54.316,6.883,72.596c-0.101,1.264-0.151,2.543-0.151,3.829v12.362c0,2.137,0.318,4.197,0.905,6.137&#10;&#9;&#9;c1.599,5.281,5.203,9.686,9.926,12.334c2.906,1.633,6.237,2.6,9.786,2.689h31.404c0.156-0.012,0.313-0.018,0.469-0.018&#10;&#9;&#9;c0.151,0,0.308,0.006,0.459,0.018c0.05,0.004,0.1,0.004,0.15,0.012c0.084,0.006,0.163,0.01,0.247,0.021&#10;&#9;&#9;c1.933,0.225,3.638,1.186,4.828,2.6c0.184,0.217,0.363,0.451,0.526,0.697c0.592,0.9,0.994,1.936,1.145,3.045&#10;&#9;&#9;c0.011,0.053,0.017,0.107,0.023,0.164c0.033,0.229,0.05,0.463,0.05,0.703c0.005,0.057,0.005,0.117,0.005,0.174&#10;&#9;&#9;c0,0.051,0,0.096-0.005,0.141v0.016c0.016,0.922,0.201,1.799,0.531,2.611c0.592,1.475,1.643,2.715,2.979,3.547&#10;&#9;&#9;c1.134,0.705,2.47,1.107,3.9,1.107c3.617,0,6.635-2.594,7.283-6.029c0.062-0.281,0.095-0.57,0.117-0.867&#10;&#9;&#9;c0.006-0.1,0.013-0.195,0.013-0.297c0.004-0.078,0.004-0.15,0.004-0.229v-0.184c0-2.533-0.425-4.97-1.201-7.232&#10;&#9;&#9;c-1.129-3.287-3.006-6.227-5.433-8.617c-2.588-2.551-5.796-4.473-9.378-5.518c-1.978-0.576-4.08-0.89-6.248-0.89H33.039&#10;&#9;&#9;c-0.062,0.007-0.129,0.007-0.19,0.007c-0.062,0-0.129,0-0.19-0.007C26.83,94.83,22.09,90.268,21.71,84.518&#10;&#9;&#9;c-0.017-0.252-0.028-0.504-0.028-0.754c0-6.17,4.996-11.168,11.167-11.168h99.816c2.576,0,4.762-1.688,5.517-4.012&#10;&#9;&#9;c0.021-0.09,0.051-0.186,0.078-0.273c0.346-1.123,1.033-2.102,1.934-2.817c0.006-0.006,0.006-0.006,0.012-0.006&#10;&#9;&#9;c0.072-0.061,0.15-0.117,0.225-0.167c0.1-0.078,0.207-0.146,0.313-0.212c2.47-1.845,4.162-4.673,4.516-7.897&#10;&#9;&#9;c0.051-0.414,0.072-0.839,0.072-1.264C145.33,54.624,145.105,53.354,144.688,52.169 M131.352,47.715c-0.24,0-0.47-0.062-0.67-0.167&#10;&#9;&#9;c-0.979-0.565-2.091-0.923-3.275-1.018c-0.213-0.017-0.426-0.028-0.643-0.028c-0.521,0-1.029,0.05-1.521,0.151&#10;&#9;&#9;c-0.812,0.151-1.576,0.436-2.275,0.822c-0.012,0.005-0.021,0.016-0.032,0.022c-0.045,0.017-0.084,0.045-0.123,0.072&#10;&#9;&#9;c-0.189,0.096-0.402,0.146-0.627,0.146c-0.775,0-1.408-0.631-1.408-1.408c0-0.487,0.246-0.911,0.621-1.163&#10;&#9;&#9;c0.045-0.033,0.09-0.056,0.14-0.084c0.905-0.508,1.896-0.888,2.94-1.117c0.736-0.163,1.502-0.247,2.285-0.247&#10;&#9;&#9;c1.682,0,3.274,0.386,4.688,1.085c0.185,0.084,0.362,0.179,0.542,0.279c0.051,0.028,0.095,0.056,0.14,0.084&#10;&#9;&#9;c0.375,0.252,0.62,0.682,0.62,1.163C132.754,47.084,132.123,47.715,131.352,47.715"/>
	<path fill="#E6E6E6" d="M144.688,52.169c-0.084-0.072-0.168-0.14-0.252-0.212c-1.922-1.671-3.565-3.655-4.84-5.874&#10;&#9;&#9;c-0.012-0.022-0.022-0.045-0.033-0.067h-0.006c-1.408-2.487-2.365-5.265-2.75-8.221c-0.019-0.179-0.039-0.358-0.058-0.537&#10;&#9;&#9;c0-0.011-0.004-0.022-0.004-0.033c-0.162-1.04-0.608-1.99-1.248-2.772c-0.062-0.068-0.123-0.14-0.183-0.207&#10;&#9;&#9;c-5.282-5.93-12.308-10.278-20.271-12.229c-0.018-0.38-0.027-0.765-0.027-1.151c0-4.415,1.135-8.562,3.125-12.172&#10;&#9;&#9;c0.11-0.202,0.172-0.436,0.172-0.688c0-0.799-0.643-1.442-1.44-1.442c-0.034,0-0.067,0-0.101,0.006&#10;&#9;&#9;c-0.084,0.005-0.168,0.022-0.246,0.039C106.482,8.28,97.4,12.796,90.141,19.301c-3.06,2.739-5.797,5.83-8.145,9.211&#10;&#9;&#9;c-0.988,1.419-1.905,2.884-2.749,4.398c-0.504-0.274-1.019-0.536-1.538-0.788c-1.632-0.804-3.314-1.514-5.046-2.135&#10;&#9;&#9;c-5.193-1.861-10.787-2.873-16.622-2.873c-1.531,0-3.051,0.073-4.549,0.213c-5.634,0.509-10.999,1.973-15.923,4.225&#10;&#9;&#9;C19.653,38.823,8.28,54.316,6.883,72.596c-0.101,1.264-0.151,2.543-0.151,3.829v12.362c0,2.137,0.318,4.197,0.905,6.137&#10;&#9;&#9;c1.599,5.281,5.203,9.686,9.926,12.334c2.906,1.633,6.237,2.6,9.786,2.689h31.404c0.156-0.012,0.313-0.018,0.469-0.018&#10;&#9;&#9;c0.151,0,0.308,0.006,0.459,0.018c0.05,0.004,0.1,0.004,0.15,0.012c0.084,0.006,0.163,0.01,0.247,0.021&#10;&#9;&#9;c1.933,0.225,3.638,1.186,4.828,2.6c0.184,0.217,0.363,0.451,0.526,0.697c0.592,0.9,0.994,1.936,1.145,3.045&#10;&#9;&#9;c0.011,0.053,0.017,0.107,0.023,0.164c0.033,0.229,0.05,0.463,0.05,0.703c0.005,0.057,0.005,0.117,0.005,0.174&#10;&#9;&#9;c0,0.051,0,0.096-0.005,0.141v0.016c0.016,0.922,0.201,1.799,0.531,2.611c0.592,1.475,1.643,2.715,2.979,3.547&#10;&#9;&#9;c1.134,0.705,2.47,1.107,3.9,1.107c3.617,0,6.635-2.594,7.283-6.029c0.062-0.281,0.095-0.57,0.117-0.867&#10;&#9;&#9;c0.006-0.1,0.013-0.195,0.013-0.297c0.004-0.078,0.004-0.15,0.004-0.229v-0.184c0-2.533-0.425-4.97-1.201-7.232&#10;&#9;&#9;c-1.129-3.287-3.006-6.227-5.433-8.617c-2.588-2.551-5.796-4.473-9.378-5.518c-1.978-0.576-4.08-0.89-6.248-0.89H33.039&#10;&#9;&#9;c-0.062,0.007-0.129,0.007-0.19,0.007c-0.062,0-0.129,0-0.19-0.007C26.83,94.83,22.09,90.268,21.71,84.518&#10;&#9;&#9;c-0.017-0.252-0.028-0.504-0.028-0.754c0-6.17,4.996-11.168,11.167-11.168h99.816c2.576,0,4.762-1.688,5.517-4.012&#10;&#9;&#9;c0.021-0.09,0.051-0.186,0.078-0.273c0.346-1.123,1.033-2.102,1.934-2.817c0.006-0.006,0.006-0.006,0.012-0.006&#10;&#9;&#9;c0.072-0.061,0.15-0.117,0.225-0.167c0.1-0.078,0.207-0.146,0.313-0.212c2.47-1.845,4.162-4.673,4.516-7.897&#10;&#9;&#9;c0.051-0.414,0.072-0.839,0.072-1.264C145.33,54.624,145.105,53.354,144.688,52.169 M131.352,47.715c-0.24,0-0.47-0.062-0.67-0.167&#10;&#9;&#9;c-0.979-0.565-2.091-0.923-3.275-1.018c-0.213-0.017-0.426-0.028-0.643-0.028c-0.521,0-1.029,0.05-1.521,0.151&#10;&#9;&#9;c-0.812,0.151-1.576,0.436-2.275,0.822c-0.012,0.005-0.021,0.016-0.032,0.022c-0.045,0.017-0.084,0.045-0.123,0.072&#10;&#9;&#9;c-0.189,0.096-0.402,0.146-0.627,0.146c-0.775,0-1.408-0.631-1.408-1.408c0-0.487,0.246-0.911,0.621-1.163&#10;&#9;&#9;c0.045-0.033,0.09-0.056,0.14-0.084c0.905-0.508,1.896-0.888,2.94-1.117c0.736-0.163,1.502-0.247,2.285-0.247&#10;&#9;&#9;c1.682,0,3.274,0.386,4.688,1.085c0.185,0.084,0.362,0.179,0.542,0.279c0.051,0.028,0.095,0.056,0.14,0.084&#10;&#9;&#9;c0.375,0.252,0.62,0.682,0.62,1.163C132.754,47.084,132.123,47.715,131.352,47.715"/>
	<path fill="#2F52A2" d="M79.398,32.655c2.688,12.921,13.898,22.615,27.328,22.615c7.903,0,15.037-3.365,20.119-8.763&#10;&#9;&#9;c-0.027-0.001-0.055-0.004-0.082-0.004c-0.521,0-1.029,0.05-1.521,0.151c-0.812,0.15-1.576,0.436-2.275,0.821&#10;&#9;&#9;c-0.011,0.006-0.021,0.017-0.032,0.023c-0.045,0.016-0.084,0.044-0.123,0.072c-0.189,0.095-0.402,0.146-0.627,0.146&#10;&#9;&#9;c-0.775,0-1.408-0.632-1.408-1.409c0-0.486,0.246-0.911,0.621-1.162c0.045-0.034,0.09-0.056,0.14-0.084&#10;&#9;&#9;c0.905-0.509,1.896-0.889,2.94-1.118c0.736-0.162,1.502-0.246,2.285-0.246c0.769,0,1.516,0.084,2.237,0.238&#10;&#9;&#9;c2.392-3.226,4.125-6.988,5.006-11.079c-5.11-5.217-11.638-9.044-18.964-10.838c-0.018-0.38-0.027-0.766-0.027-1.151&#10;&#9;&#9;c0-4.416,1.135-8.563,3.125-12.173c0.11-0.201,0.172-0.435,0.172-0.687c0-0.799-0.643-1.442-1.44-1.442&#10;&#9;&#9;c-0.034,0-0.067,0-0.101,0.006c-0.084,0.005-0.168,0.022-0.246,0.039C106.48,8.28,97.4,12.797,90.141,19.302&#10;&#9;&#9;c-3.059,2.738-5.797,5.829-8.145,9.21C81.064,29.85,80.202,31.232,79.398,32.655"/>
	<path fill="#272B30" d="M137.284,59.354c-1.214-0.36-2.421-0.72-3.65-0.991c-1.218-0.312-2.446-0.576-3.679-0.806&#10;&#9;&#9;c-2.467-0.449-4.947-0.791-7.438-0.949c-2.492-0.209-4.99-0.106-7.478,0.086l-1.863,0.209c-0.62,0.087-1.228,0.234-1.845,0.344&#10;&#9;&#9;c-1.256,0.152-2.43,0.608-3.678,0.87c2.307-1.034,4.759-1.823,7.289-2.186c2.521-0.379,5.093-0.51,7.638-0.32&#10;&#9;&#9;c2.545,0.186,5.073,0.563,7.539,1.199C132.582,57.441,135.007,58.235,137.284,59.354"/>
	<path fill="#272B30" d="M136.188,61.648c-1.254-0.176-2.5-0.352-3.758-0.437c-1.252-0.128-2.505-0.207-3.759-0.251&#10;&#9;&#9;c-2.506-0.077-5.009-0.048-7.496,0.167c-2.495,0.163-4.95,0.636-7.381,1.195l-1.813,0.484c-0.599,0.177-1.179,0.413-1.772,0.613&#10;&#9;&#9;c-1.218,0.337-2.312,0.962-3.506,1.407c2.127-1.365,4.435-2.509,6.883-3.244c2.438-0.75,4.96-1.261,7.506-1.451&#10;&#9;&#9;c2.543-0.194,5.103-0.197,7.634,0.065C131.251,60.456,133.77,60.88,136.188,61.648"/>
	<path fill="#272B30" d="M136.016,64.321c-1.264,0.1-2.518,0.196-3.765,0.384c-1.248,0.146-2.489,0.339-3.724,0.567&#10;&#9;&#9;c-2.463,0.466-4.9,1.035-7.282,1.781c-2.401,0.698-4.696,1.689-6.949,2.762l-1.665,0.863c-0.547,0.303-1.063,0.657-1.599,0.98&#10;&#9;&#9;c-1.117,0.593-2.05,1.439-3.121,2.131c1.782-1.791,3.789-3.407,6.021-4.652c2.219-1.259,4.57-2.303,7.016-3.037&#10;&#9;&#9;c2.441-0.74,4.938-1.294,7.467-1.585C130.939,64.221,133.488,64.093,136.016,64.321"/>
	<path fill="#F27BAA" d="M144.436,51.957c-0.422-0.366-0.828-0.751-1.223-1.147c-1.07,0.649-1.79,1.822-1.79,3.167&#10;&#9;&#9;c0,2.044,1.657,3.702,3.701,3.702c0.021,0,0.038-0.002,0.058-0.003c0.022-0.156,0.059-0.307,0.075-0.465&#10;&#9;&#9;c0.05-0.414,0.072-0.838,0.072-1.263c0-1.325-0.224-2.594-0.644-3.779C144.604,52.097,144.52,52.03,144.436,51.957"/>
	<path fill="#FFFFFF" d="M113.764,23.924c0,0.173,0,0.352,0.006,0.525c-4.504,1.828-8.602,4.46-12.105,7.713&#10;&#9;&#9;c-0.145-0.995-0.219-2.007-0.219-3.041c0-10.216,7.216-18.75,16.834-20.779C115.423,12.847,113.764,18.19,113.764,23.924"/>
	<path fill="#2F52A2" d="M74.843,101.328c-0.49-0.482-1.01-0.936-1.543-1.371c-5.61,1.143-10.229,5.014-12.41,10.168&#10;&#9;&#9;c1.596,0.367,2.996,1.242,4.016,2.453c0.184,0.219,0.363,0.453,0.525,0.699c0.593,0.9,0.995,1.934,1.146,3.047&#10;&#9;&#9;c0.011,0.049,0.017,0.105,0.022,0.162c0.034,0.229,0.051,0.463,0.051,0.703c0.005,0.057,0.005,0.119,0.005,0.174&#10;&#9;&#9;c0,0.049,0,0.094-0.005,0.139v0.018c0.016,0.922,0.201,1.801,0.53,2.609c0.593,1.477,1.643,2.717,2.979,3.551&#10;&#9;&#9;c1.135,0.703,2.471,1.105,3.901,1.105c3.616,0,6.635-2.594,7.283-6.031c0.062-0.279,0.095-0.568,0.117-0.865&#10;&#9;&#9;c0.006-0.102,0.011-0.195,0.011-0.295c0.006-0.08,0.006-0.152,0.006-0.23v-0.184c0-2.533-0.425-4.971-1.201-7.232&#10;&#9;&#9;C79.146,106.66,77.268,103.721,74.843,101.328"/>
</g></g><path d="M 3.7799999713897705 24.15999984741211 L 3.7799999713897705 -3.559999465942383 C 3.7799999713897705 -4.173334121704102 4.340000152587891 -4.479999542236328 5.460000038146973 -4.479999542236328 L 6.96999979019165 -4.479999542236328 C 7.869999885559082 -4.479999542236328 8.460000038146973 -4.229999542236328 8.739999771118164 -3.729999542236328 L 16.670000076293945 10.050000190734863 L 17.770000457763672 12.6899995803833 L 18.860000610351562 10.300000190734863 L 26.799999237060547 -3.729999542236328 C 27.079999923706055 -4.229999542236328 27.66666603088379 -4.479999542236328 28.559999465942383 -4.479999542236328 L 29.950000762939453 -4.479999542236328 C 31.06999969482422 -4.479999542236328 31.6299991607666 -4.173334121704102 31.6299991607666 -3.559999465942383 L 31.6299991607666 24.15999984741211 C 31.6299991607666 24.773332595825195 31.06999969482422 25.079999923706055 29.950000762939453 25.079999923706055 L 29.649999618530273 25.079999923706055 C 28.530000686645508 25.079999923706055 27.969999313354492 24.773332595825195 27.969999313354492 24.15999984741211 L 27.969999313354492 1.5599994659423828 L 19.530000686645508 16.260000228881836 C 19.336666107177734 16.626667022705078 19.030000686645508 16.810001373291016 18.610000610351562 16.810001373291016 L 16.93000030517578 16.810001373291016 C 16.510000228881836 16.810001373291016 16.200000762939453 16.626667022705078 16 16.260000228881836 L 7.429999828338623 1.3099994659423828 L 7.429999828338623 24.15999984741211 C 7.429999828338623 24.773332595825195 6.869999885559082 25.079999923706055 5.75 25.079999923706055 L 5.460000038146973 25.079999923706055 C 4.340000152587891 25.079999923706055 3.7799999713897705 24.773332595825195 3.7799999713897705 24.15999984741211 ZM 36.16402053833008 3.6599998474121094 C 36.16402053833008 3.186666488647461 36.76402282714844 2.950000762939453 37.96402359008789 2.950000762939453 L 38.30402374267578 2.950000762939453 C 39.224021911621094 2.950000762939453 39.78402328491211 3.1733341217041016 39.98402404785156 3.6200008392333984 L 45.69402313232422 18.780000686645508 L 51.28402328491211 3.6200008392333984 C 51.42402267456055 3.1733341217041016 52.04735565185547 2.950000762939453 53.154022216796875 2.950000762939453 C 54.25402069091797 2.950000762939453 54.80402374267578 3.186666488647461 54.80402374267578 3.6599998474121094 C 54.80402374267578 3.799999237060547 54.76402282714844 3.9966659545898438 54.68402099609375 4.25 L 43.8840217590332 32.849998474121094 C 43.664024353027344 33.44333267211914 43.007354736328125 33.73999786376953 41.914024353027344 33.73999786376953 L 41.28402328491211 33.73999786376953 C 40.357357025146484 33.73999786376953 39.894020080566406 33.51333236694336 39.894020080566406 33.060001373291016 C 39.894020080566406 32.97999954223633 41.140689849853516 29.899999618530273 43.6340217590332 23.81999969482422 L 36.28402328491211 4.209999084472656 C 36.20402145385742 3.956666946411133 36.16402053833008 3.7733325958251953 36.16402053833008 3.6599998474121094 Z" transform="matrix(4.914965629577637, 0, 0, 4.914965629577637, 345.91461181640625, 339.0816650390625)" style="fill: rgb(47, 82, 162); white-space: pre; color: rgb(51, 51, 51);"/></svg>